{
  "accessors": [
    {
      "bufferView": 2,
      "componentType": 5126,
      "count": 3980,
      "max": [
        0.9637248516082764,
        2.000000238418579,
        0.9770509600639343
      ],
      "min": [
        -0.9637247920036316,
        0.011787197552621365,
        -0.7418149709701538
      ],
      "type": "VEC3"
    },
    {
      "bufferView": 2,
      "byteOffset": 47760,
      "componentType": 5126,
      "count": 3980,
      "max": [
        0.9999068975448608,
        1.0,
        1.0
      ],
      "min": [
        -0.9999068975448608,
        -0.999769926071167,
        -1.0
      ],
      "type": "VEC3"
    },
    {
      "bufferView": 1,
      "componentType": 5126,
      "count": 3980,
      "max": [
        0.8750001788139343,
        1.0000001192092896
      ],
      "min": [
        0.125,
        0.0
      ],
      "type": "VEC2"
    },
    {
      "bufferView": 0,
      "componentType": 5125,
      "count": 17664,
      "type": "SCALAR"
    },
    {
      "bufferView": 2,
      "byteOffset": 95520,
      "componentType": 5126,
      "count": 23511,
      "max": [
        3.3175995349884033,
        0.9609604477882385,
        3.321985960006714
      ],
      "min": [
        -3.334282636642456,
        -185.1866912841797,
        -3.321988344192505
      ],
      "type": "VEC3"
    },
    {
      "bufferView": 2,
      "byteOffset": 377652,
      "componentType": 5126,
      "count": 23511,
      "max": [
        1.0,
        1.0,
        1.0
      ],
      "min": [
        -1.0,
        -1.0,
        -1.0
      ],
      "type": "VEC3"
    },
    {
      "bufferView": 1,
      "byteOffset": 31840,
      "componentType": 5126,
      "count": 23511,
      "max": [
        1.0000001192092896,
        1.0000001192092896
      ],
      "min": [
        0.0,
        0.010000006295740604
      ],
      "type": "VEC2"
    },
    {
      "bufferView": 0,
      "byteOffset": 70656,
      "componentType": 5125,
      "count": 70656,
      "type": "SCALAR"
    },
    {
      "bufferView": 2,
      "byteOffset": 659784,
      "componentType": 5126,
      "count": 936,
      "max": [
        0.18160341680049896,
        0.015000003390014172,
        0.02266598865389824
      ],
      "min": [
        -0.18043290078639984,
        -0.015000003390014172,
        -0.25323018431663513
      ],
      "type": "VEC3"
    },
    {
      "bufferView": 2,
      "byteOffset": 671016,
      "componentType": 5126,
      "count": 936,
      "max": [
        0.9998878240585327,
        1.0,
        0.9984169602394104
      ],
      "min": [
        -0.9998652935028076,
        -1.0,
        -0.9984222054481506
      ],
      "type": "VEC3"
    },
    {
      "bufferView": 1,
      "byteOffset": 219928,
      "componentType": 5126,
      "count": 936,
      "max": [
        1.0,
        1.0
      ],
      "min": [
        0.0,
        0.0
      ],
      "type": "VEC2"
    },
    {
      "bufferView": 0,
      "byteOffset": 353280,
      "componentType": 5125,
      "count": 5112,
      "type": "SCALAR"
    }
  ],
  "asset": {
    "extras": {
      "author": "Mr.N0b0dy (https://sketchfab.com/Mr.N0b0dy)",
      "license": "CC-BY-4.0 (http://creativecommons.org/licenses/by/4.0/)",
      "source": "https://sketchfab.com/3d-models/bar-stool-98c7d9cd829641f281e0177355fdc2c7",
      "title": "Bar stool"
    },
    "generator": "Sketchfab-12.57.0",
    "version": "2.0"
  },
  "bufferViews": [
    {
      "buffer": 0,
      "byteLength": 373728,
      "name": "floatBufferViews",
      "target": 34963
    },
    {
      "buffer": 0,
      "byteLength": 227416,
      "byteOffset": 373728,
      "byteStride": 8,
      "name": "floatBufferViews",
      "target": 34962
    },
    {
      "buffer": 0,
      "byteLength": 682248,
      "byteOffset": 601144,
      "byteStride": 12,
      "name": "floatBufferViews",
      "target": 34962
    }
  ],
  "buffers": [
    {
      "byteLength": 1283392,
      "uri": "scene.bin"
    }
  ],
  "materials": [
    {
      "doubleSided": true,
      "name": "Material.002",
      "pbrMetallicRoughness": {
        "baseColorFactor": [
          1.0,
          0.0,
          0.0,
          1.0
        ],
        "metallicFactor": 0.0,
        "roughnessFactor": 0.212727
      }
    },
    {
      "doubleSided": true,
      "name": "Material.001",
      "pbrMetallicRoughness": {
        "baseColorFactor": [
          0.8,
          0.8,
          0.8,
          1.0
        ],
        "roughnessFactor": 0.12828785786883795
      }
    },
    {
      "doubleSided": true,
      "name": "Material.057",
      "pbrMetallicRoughness": {
        "baseColorFactor": [
          0.8,
          0.8,
          0.8,
          1.0
        ],
        "roughnessFactor": 0.2
      }
    }
  ],
  "meshes": [
    {
      "name": "Object_0",
      "primitives": [
        {
          "attributes": {
            "NORMAL": 1,
            "POSITION": 0,
            "TEXCOORD_0": 2
          },
          "indices": 3,
          "material": 0,
          "mode": 4
        }
      ]
    },
    {
      "name": "Object_1",
      "primitives": [
        {
          "attributes": {
            "NORMAL": 5,
            "POSITION": 4,
            "TEXCOORD_0": 6
          },
          "indices": 7,
          "material": 1,
          "mode": 4
        }
      ]
    },
    {
      "name": "Object_2",
      "primitives": [
        {
          "attributes": {
            "NORMAL": 9,
            "POSITION": 8,
            "TEXCOORD_0": 10
          },
          "indices": 11,
          "material": 2,
          "mode": 4
        }
      ]
    }
  ],
  "nodes": [
    {
      "children": [
        1
      ],
      "matrix": [
        0.6666666865348816,
        -2.3804997541821127e-32,
        1.072081780589012e-16,
        0.0,
        1.072081780589012e-16,
        1.4802974102831747e-16,
        -0.6666666865348816,
        0.0,
        0.0,
        0.6666666865348816,
        1.4802974102831747e-16,
        0.0,
        2.6020852139652106e-18,
        -1.1940765655200862e-32,
        5.377642775528102e-17,
        1.0
      ],
      "name": "Sketchfab_model"
    },
    {
      "children": [
        2
      ],
      "name": "root"
    },
    {
      "children": [
        3,
        5,
        7
      ],
      "matrix": [
        1.0,
        0.0,
        0.0,
        0.0,
        0.0,
        2.220446049250313e-16,
        1.0,
        0.0,
        0.0,
        -1.0,
        2.220446049250313e-16,
        0.0,
        0.0,
        0.0,
        0.0,
        1.0
      ],
      "name": "GLTF_SceneRootNode"
    },
    {
      "children": [
        4
      ],
      "matrix": [
        0.234491765499115,
        0.0,
        0.0,
        0.0,
        0.0,
        0.06750565767288208,
        0.0,
        0.0,
        0.0,
        0.0,
        0.234491765499115,
        0.0,
        0.005435943603515625,
        0.5985788106918335,
        0.010626912117004395,
        1.0
      ],
      "name": "Cube_0"
    },
    {
      "mesh": 0,
      "name": "Object_4"
    },
    {
      "children": [
        6
      ],
      "matrix": [
        0.061593398451805115,
        0.0,
        0.0,
        0.0,
        0.0,
        0.0033035941887646914,
        0.0,
        0.0,
        0.0,
        0.0,
        0.061593398451805115,
        0.0,
        0.005435943603515625,
        0.5981775522232056,
        -0.0043981075286865234,
        1.0
      ],
      "name": "Cylinder.025_1"
    },
    {
      "mesh": 1,
      "name": "Object_6"
    },
    {
      "children": [
        8
      ],
      "matrix": [
        0.773201048374176,
        0.0,
        0.0,
        0.0,
        0.0,
        0.773201048374176,
        0.0,
        0.0,
        0.0,
        0.0,
        0.773201048374176,
        0.0,
        0.005435943603515625,
        0.196979358792305,
        -0.0043981075286865234,
        1.0
      ],
      "name": "NurbsCurve.001_3"
    },
    {
      "mesh": 2,
      "name": "Object_8"
    }
  ],
  "scene": 0,
  "scenes": [
    {
      "name": "Sketchfab_Scene",
      "nodes": [
        0
      ]
    }
  ]
}
